# xmcd CD database file
#
# Track frame offsets:
#	150
#	36212
#	50312
#	103112
#	129062
#	152687
#	182462
#	209912
#	227687
#	262337
#
# Disc length: 3767 seconds
#
# Revision: 0
# Processed by: cddbd v1.5.2PL0 Copyright (c) Steve Scherf et al.
# Submitted via: CDex 1.51
#
DISCID=870eb50a
DTITLE=Habarigani - Two
DYEAR=1990
DGENRE=Jazz
TTITLE0=Numinous
TTITLE1=So Evidently
TTITLE2=Games
TTITLE3=Duo 9
TTITLE4=Sabina And Piselli
TTITLE5=Kein Schnee
TTITLE6=Hoi Hoi
TTITLE7=Duo 14
TTITLE8=Quartet 7
TTITLE9=Extra Goodies
EXTD=YEAR: 1990
EXTT0=
EXTT1=
EXTT2=
EXTT3=
EXTT4=
EXTT5=
EXTT6=
EXTT7=
EXTT8=
EXTT9=
PLAYORDER=
